<svg width="18" height="18" viewBox="0 0 18 18" fill="none" xmlns="http://www.w3.org/2000/svg">
<path d="M9 0C7.77273 0 6.81392 0.473214 6.12358 1.41964C5.43324 2.36607 5.08807 3.57589 5.08807 5.04911C5.07955 6.87946 5.64205 8.33036 6.77557 9.40179C6.92045 9.54464 6.97159 9.72768 6.92898 9.95089L6.63494 10.5938C6.54119 10.808 6.4027 10.9754 6.21946 11.096C6.03622 11.2165 5.65057 11.3884 5.0625 11.6116C5.03693 11.6205 4.49787 11.8036 3.44531 12.1607C2.39276 12.5179 1.83239 12.7143 1.7642 12.75C1.0483 13.0625 0.579545 13.3884 0.357955 13.7277C0.119318 14.2902 0 15.7143 0 18H18C18 15.7143 17.8807 14.2902 17.642 13.7277C17.4205 13.3884 16.9517 13.0625 16.2358 12.75C16.1676 12.7143 15.6072 12.5179 14.5547 12.1607C13.5021 11.8036 12.9631 11.6205 12.9375 11.6116C12.3494 11.3884 11.9638 11.2165 11.7805 11.096C11.5973 10.9754 11.4588 10.808 11.3651 10.5938L11.071 9.95089C11.0284 9.72768 11.0795 9.54464 11.2244 9.40179C12.358 8.33036 12.9205 6.87946 12.9119 5.04911C12.9119 3.57589 12.5668 2.36607 11.8764 1.41964C11.1861 0.473214 10.2273 0 9 0Z" fill="white"/>
</svg>
