<svg width="42" height="42" viewBox="0 0 42 42" fill="none" xmlns="http://www.w3.org/2000/svg">
<path d="M21 0C18.1364 0 15.8991 1.10417 14.2884 3.3125C12.6776 5.52083 11.8722 8.34375 11.8722 11.7812C11.8523 16.0521 13.1648 19.4375 15.8097 21.9375C16.1477 22.2708 16.267 22.6979 16.1676 23.2188L15.4815 24.7188C15.2628 25.2188 14.9396 25.6094 14.5121 25.8906C14.0845 26.1719 13.1847 26.5729 11.8125 27.0938C11.7528 27.1146 10.495 27.5417 8.03906 28.375C5.5831 29.2083 4.27557 29.6667 4.11648 29.75C2.44602 30.4792 1.35227 31.2396 0.835227 32.0312C0.278409 33.3438 0 36.6667 0 42H42C42 36.6667 41.7216 33.3438 41.1648 32.0312C40.6477 31.2396 39.554 30.4792 37.8835 29.75C37.7244 29.6667 36.4169 29.2083 33.9609 28.375C31.505 27.5417 30.2472 27.1146 30.1875 27.0938C28.8153 26.5729 27.9155 26.1719 27.4879 25.8906C27.0604 25.6094 26.7372 25.2188 26.5185 24.7188L25.8324 23.2188C25.733 22.6979 25.8523 22.2708 26.1903 21.9375C28.8352 19.4375 30.1477 16.0521 30.1278 11.7812C30.1278 8.34375 29.3224 5.52083 27.7116 3.3125C26.1009 1.10417 23.8636 0 21 0Z" fill="white"/>
</svg>
