<svg width="42" height="42" viewBox="0 0 42 42" fill="none" xmlns="http://www.w3.org/2000/svg">
<path d="M38.1197 21.0277C37.9409 21.0277 37.7694 20.9566 37.6429 20.8302C37.5165 20.7037 37.4454 20.5322 37.4454 20.3534V11.8966H30.7016C30.5228 11.8966 30.3513 11.8256 30.2248 11.6991C30.0984 11.5727 30.0273 11.4012 30.0273 11.2224C30.0273 11.0435 30.0984 10.872 30.2248 10.7456C30.3513 10.6191 30.5228 10.5481 30.7016 10.5481H38.1197C38.2985 10.5481 38.47 10.6191 38.5965 10.7456C38.7229 10.872 38.794 11.0435 38.794 11.2224V20.3545C38.7937 20.5332 38.7225 20.7044 38.5961 20.8306C38.4697 20.9568 38.2983 21.0277 38.1197 21.0277Z" fill="white"/>
<path d="M38.1194 38.8711H6.76075C5.24092 38.8694 3.78382 38.2649 2.70914 37.1903C1.63445 36.1156 1.02997 34.6585 1.02832 33.1386V7.5124C1.02832 7.33358 1.09936 7.16207 1.22581 7.03562C1.35226 6.90917 1.52376 6.83813 1.70259 6.83813C1.88142 6.83813 2.05292 6.90917 2.17937 7.03562C2.30582 7.16207 2.37686 7.33358 2.37686 7.5124V33.1392C2.37806 34.3015 2.84032 35.4159 3.6622 36.2378C4.48408 37.0596 5.59844 37.5219 6.76075 37.5231H37.4452V28.4466C37.4452 28.2677 37.5162 28.0962 37.6427 27.9698C37.7691 27.8433 37.9406 27.7723 38.1194 27.7723C38.2983 27.7723 38.4698 27.8433 38.5962 27.9698C38.7227 28.0962 38.7937 28.2677 38.7937 28.4466V38.1974C38.7935 38.3761 38.7224 38.5475 38.596 38.6738C38.4696 38.8001 38.2982 38.8711 38.1194 38.8711Z" fill="white"/>
<path d="M39.6232 29.1206H30.8083C29.5564 29.1206 28.3557 28.6233 27.4705 27.738C26.5852 26.8528 26.0879 25.6521 26.0879 24.4001C26.0879 23.1482 26.5852 21.9475 27.4705 21.0623C28.3557 20.177 29.5564 19.6797 30.8083 19.6797H39.6232C39.9807 19.6801 40.3235 19.8224 40.5763 20.0752C40.8291 20.328 40.9713 20.6707 40.9718 21.0282V27.7721C40.9713 28.1296 40.8291 28.4723 40.5763 28.7251C40.3235 28.9779 39.9807 29.1202 39.6232 29.1206ZM39.6232 21.0282H30.8083C29.9141 21.0282 29.0564 21.3835 28.424 22.0158C27.7917 22.6482 27.4364 23.5059 27.4364 24.4001C27.4364 25.2944 27.7917 26.1521 28.424 26.7845C29.0564 27.4168 29.9141 27.7721 30.8083 27.7721H39.6232V21.0282Z" fill="white"/>
<path d="M30.7013 11.8955H5.41164C4.24911 11.8955 3.1342 11.4337 2.31217 10.6117C1.49013 9.78967 1.02832 8.67476 1.02832 7.51223C1.02832 6.3497 1.49013 5.23478 2.31217 4.41275C3.1342 3.59072 4.24911 3.12891 5.41164 3.12891H30.0242C30.3829 3.12981 30.7267 3.27294 30.98 3.52691C31.2333 3.78089 31.3756 4.12497 31.3756 4.48369V11.2213C31.3756 11.4001 31.3046 11.5716 31.1781 11.6981C31.0517 11.8245 30.8801 11.8955 30.7013 11.8955ZM5.41164 4.47745C4.60677 4.47745 3.83486 4.79718 3.26573 5.36631C2.6966 5.93544 2.37686 6.70735 2.37686 7.51223C2.37686 8.3171 2.6966 9.08901 3.26573 9.65814C3.83486 10.2273 4.60677 10.547 5.41164 10.547H30.0242V4.48369L5.41164 4.47745Z" fill="white"/>
<path d="M30.7015 8.18668H8.33931C8.16048 8.18668 7.98898 8.11564 7.86253 7.98919C7.73608 7.86274 7.66504 7.69123 7.66504 7.51241C7.66504 7.33358 7.73608 7.16207 7.86253 7.03562C7.98898 6.90917 8.16048 6.83813 8.33931 6.83813H30.7015C30.8803 6.83813 31.0518 6.90917 31.1783 7.03562C31.3047 7.16207 31.3757 7.33358 31.3757 7.51241C31.3757 7.69123 31.3047 7.86274 31.1783 7.98919C31.0518 8.11564 30.8803 8.18668 30.7015 8.18668Z" fill="white"/>
<path d="M31.4022 26.4817C30.9564 26.4816 30.5207 26.3493 30.1501 26.1016C29.7795 25.8538 29.4908 25.5018 29.3203 25.0899C29.1498 24.678 29.1053 24.2249 29.1923 23.7877C29.2794 23.3505 29.4942 22.949 29.8095 22.6338C30.1247 22.3187 30.5264 22.1042 30.9636 22.0173C31.4008 21.9305 31.854 21.9752 32.2658 22.1459C32.6776 22.3166 33.0295 22.6056 33.277 22.9763C33.5246 23.347 33.6567 23.7827 33.6566 24.2285C33.6558 24.8261 33.418 25.3989 32.9954 25.8214C32.5727 26.2438 31.9997 26.4813 31.4022 26.4817ZM31.4022 23.1643C31.1918 23.1641 30.9861 23.2263 30.811 23.343C30.636 23.4597 30.4995 23.6257 30.4188 23.82C30.3381 24.0143 30.3168 24.2281 30.3577 24.4345C30.3985 24.6409 30.4997 24.8305 30.6483 24.9794C30.797 25.1283 30.9865 25.2298 31.1928 25.271C31.3991 25.3122 31.613 25.2912 31.8074 25.2109C32.0018 25.1305 32.1681 24.9942 32.2851 24.8194C32.402 24.6445 32.4646 24.4389 32.4647 24.2285C32.4645 23.9466 32.3526 23.6763 32.1534 23.4768C31.9542 23.2773 31.6841 23.1649 31.4022 23.1643Z" fill="white"/>
</svg>
