<svg width="18" height="17" viewBox="0 0 18 17" fill="none" xmlns="http://www.w3.org/2000/svg">
<path d="M2.57147 3.10638H15.4286C15.5788 3.10631 15.7288 3.11584 15.8778 3.13491C15.8273 2.78044 15.7056 2.43987 15.5199 2.13373C15.3342 1.8276 15.0885 1.56223 14.7975 1.35363C14.5064 1.14504 14.1762 0.997533 13.8267 0.920014C13.4771 0.842495 13.1155 0.836566 12.7636 0.902586L2.18978 2.70781H2.17772C1.514 2.83473 0.923774 3.21025 0.527588 3.75768C1.12448 3.33312 1.83899 3.10543 2.57147 3.10638Z" fill="white"/>
<path d="M15.4286 4.07062H2.57143C1.88967 4.07136 1.23605 4.34252 0.753976 4.82459C0.271901 5.30667 0.000744451 5.96029 0 6.64205V14.3563C0.000744451 15.0381 0.271901 15.6917 0.753976 16.1738C1.23605 16.6559 1.88967 16.927 2.57143 16.9278H15.4286C16.1103 16.927 16.7639 16.6559 17.246 16.1738C17.7281 15.6917 17.9993 15.0381 18 14.3563V6.64205C17.9993 5.96029 17.7281 5.30667 17.246 4.82459C16.7639 4.34252 16.1103 4.07136 15.4286 4.07062ZM13.5201 11.7849C13.2658 11.7849 13.0172 11.7095 12.8058 11.5682C12.5943 11.4269 12.4296 11.2261 12.3322 10.9912C12.2349 10.7563 12.2095 10.4978 12.2591 10.2484C12.3087 9.99896 12.4311 9.76986 12.611 9.59005C12.7908 9.41024 13.0199 9.28779 13.2693 9.23818C13.5187 9.18857 13.7772 9.21403 14.0121 9.31134C14.247 9.40866 14.4478 9.57345 14.5891 9.78488C14.7304 9.99632 14.8058 10.2449 14.8058 10.4992C14.8058 10.8402 14.6703 11.1672 14.4292 11.4083C14.1881 11.6494 13.8611 11.7849 13.5201 11.7849Z" fill="white"/>
<path d="M0.0200195 9.35413V5.35637C0.0200195 4.4857 0.502162 3.02601 2.1756 2.7098C3.59591 2.44342 5.00216 2.44342 5.00216 2.44342C5.00216 2.44342 5.92627 3.08628 5.16288 3.08628C4.39948 3.08628 4.41957 4.07065 5.16288 4.07065C5.90618 4.07065 5.16288 5.01485 5.16288 5.01485L2.16957 8.40994L0.0200195 9.35413Z" fill="white"/>
</svg>
