<svg width="42" height="38" viewBox="0 0 42 38" fill="none" xmlns="http://www.w3.org/2000/svg">
<path d="M6.00014 5.24828H36.0001C36.3506 5.24812 36.7007 5.27035 37.0483 5.31485C36.9304 4.48776 36.6463 3.6931 36.2131 2.97877C35.7799 2.26445 35.2064 1.64526 34.5274 1.15854C33.8484 0.671814 33.0779 0.327638 32.2622 0.14676C31.4466 -0.0341178 30.6028 -0.0479505 29.7817 0.106095L5.10952 4.31828H5.08139C3.53271 4.61444 2.15551 5.49065 1.23108 6.76797C2.62382 5.77734 4.29102 5.24608 6.00014 5.24828Z" fill="white"/>
<path d="M36 7.49829H6C4.40923 7.50003 2.88412 8.13273 1.75928 9.25757C0.634436 10.3824 0.00173705 11.9075 0 13.4983V31.4983C0.00173705 33.0891 0.634436 34.6142 1.75928 35.739C2.88412 36.8639 4.40923 37.4966 6 37.4983H36C37.5908 37.4966 39.1159 36.8639 40.2407 35.739C41.3656 34.6142 41.9983 33.0891 42 31.4983V13.4983C41.9983 11.9075 41.3656 10.3824 40.2407 9.25757C39.1159 8.13273 37.5908 7.50003 36 7.49829ZM31.5469 25.4983C30.9535 25.4983 30.3735 25.3223 29.8802 24.9927C29.3868 24.6631 29.0023 24.1945 28.7752 23.6463C28.5482 23.0982 28.4888 22.495 28.6045 21.913C28.7203 21.3311 29.006 20.7965 29.4256 20.377C29.8451 19.9574 30.3797 19.6717 30.9616 19.5559C31.5435 19.4402 32.1467 19.4996 32.6949 19.7267C33.2431 19.9537 33.7116 20.3382 34.0413 20.8316C34.3709 21.3249 34.5469 21.9049 34.5469 22.4983C34.5469 23.2939 34.2308 24.057 33.6682 24.6196C33.1056 25.1822 32.3425 25.4983 31.5469 25.4983Z" fill="white"/>
<path d="M0.046875 19.8264V10.4983C0.046875 8.46673 1.17188 5.06079 5.07656 4.32298C8.39062 3.70142 11.6719 3.70142 11.6719 3.70142C11.6719 3.70142 13.8281 5.20142 12.0469 5.20142C10.2656 5.20142 10.3125 7.49829 12.0469 7.49829C13.7812 7.49829 12.0469 9.70142 12.0469 9.70142L5.0625 17.6233L0.046875 19.8264Z" fill="white"/>
</svg>
