<svg width="68" height="26" viewBox="0 0 68 26" fill="none" xmlns="http://www.w3.org/2000/svg">
<path d="M9.904 9.48C10.064 9.08 10.192 8.672 10.288 8.256C10.4 7.824 10.456 7.432 10.456 7.08C10.456 6.712 10.328 6.04 10.072 5.064C9.624 3.432 9.24 2.464 8.92 2.16L8.776 1.992C8.616 1.896 8.536 1.784 8.536 1.656C8.536 1.384 8.896 1.152 9.616 0.959999C10.336 0.767999 10.92 0.671999 11.368 0.671999C11.832 0.671999 12.104 0.807999 12.184 1.08C12.376 1.672 12.584 2.528 12.808 3.648C13.048 4.768 13.248 5.736 13.408 6.552C13.584 7.352 13.72 7.968 13.816 8.4C13.912 8.832 14.04 9.392 14.2 10.08C14.504 11.36 14.808 12.408 15.112 13.224C15.208 13.448 15.32 13.56 15.448 13.56C15.592 13.56 15.736 13.424 15.88 13.152C16.04 12.864 16.248 12.464 16.504 11.952C16.776 11.424 17.128 10.496 17.56 9.168C18.008 7.84 18.232 6.688 18.232 5.712C18.232 4.208 17.736 3.144 16.744 2.52C16.664 2.424 16.624 2.32 16.624 2.208C16.624 2.096 16.68 1.984 16.792 1.872C16.904 1.792 17.064 1.688 17.272 1.56C17.48 1.416 17.896 1.24 18.52 1.032C19.144 0.808 19.704 0.696 20.2 0.696C20.696 0.696 20.992 0.768 21.088 0.912C21.184 1.04 21.232 1.28 21.232 1.632C21.232 3.184 20.768 5.248 19.84 7.824C18.928 10.384 17.952 12.648 16.912 14.616C15.888 16.568 15.12 17.792 14.608 18.288C14.336 18.528 14.176 18.648 14.128 18.648C13.984 18.648 13.848 18.536 13.72 18.312C13.176 17.4 12.584 15.616 11.944 12.96C11.656 11.712 11.488 11.008 11.44 10.848C11.392 10.688 11.352 10.608 11.32 10.608C11.24 10.608 11.168 10.688 11.104 10.848C10.544 12.144 9.92 13.416 9.232 14.664C8.544 15.896 7.992 16.808 7.576 17.4L6.976 18.288C6.816 18.512 6.656 18.624 6.496 18.624C6.336 18.624 6.192 18.52 6.064 18.312C5.632 17.496 5.104 15.92 4.48 13.584L4.168 12.384C4.104 12.16 3.96 11.552 3.736 10.56C2.888 6.768 2.24 4.4 1.792 3.456C1.536 2.928 1.312 2.584 1.12 2.424C0.944 2.264 0.8 2.168 0.688 2.136C0.512 2.056 0.424 1.96 0.424 1.848C0.424 1.72 0.488 1.6 0.616 1.488C0.808 1.344 1.232 1.176 1.888 0.983999C2.544 0.775999 3.096 0.671999 3.544 0.671999C3.992 0.671999 4.256 0.807999 4.336 1.08C4.656 1.672 5.032 3 5.464 5.064C6.376 9.384 7.048 12.104 7.48 13.224C7.56 13.448 7.672 13.56 7.816 13.56C7.96 13.56 8.088 13.44 8.2 13.2C8.344 13.056 8.624 12.504 9.04 11.544C9.472 10.568 9.76 9.88 9.904 9.48ZM23.3656 11.904L23.3896 12.504C23.3896 12.6 23.4536 12.648 23.5816 12.648C24.0936 12.6 24.5416 12.472 24.9256 12.264C25.3096 12.04 25.5976 11.792 25.7896 11.52C26.1736 10.928 26.3816 10.416 26.4136 9.984L26.4376 9.696C26.4376 8.832 26.0936 8.4 25.4056 8.4C24.8936 8.4 24.4776 8.624 24.1576 9.072C23.6296 9.776 23.3656 10.72 23.3656 11.904ZM28.5976 15.096C28.5976 15.704 28.4696 16.24 28.2136 16.704C27.9736 17.152 27.6936 17.488 27.3736 17.712C27.0696 17.92 26.7096 18.088 26.2936 18.216C25.7656 18.376 25.2616 18.456 24.7816 18.456C23.4376 18.456 22.4456 17.952 21.8056 16.944C21.1656 15.936 20.8456 14.656 20.8456 13.104C20.8456 11.536 21.2376 10.144 22.0216 8.928C22.8216 7.712 24.0136 7.104 25.5976 7.104C27.0376 7.104 28.0136 7.608 28.5256 8.616C28.7336 9 28.8376 9.368 28.8376 9.72C28.8376 10.056 28.8216 10.328 28.7896 10.536C28.7576 10.728 28.6456 11.024 28.4536 11.424C28.2616 11.824 28.0056 12.184 27.6856 12.504C27.3656 12.824 26.8616 13.128 26.1736 13.416C25.4856 13.704 24.6776 13.896 23.7496 13.992C23.6216 13.992 23.5576 14.048 23.5576 14.16C23.5576 14.304 23.6056 14.52 23.7016 14.808C23.8136 15.08 23.9336 15.312 24.0616 15.504C24.4136 15.952 24.9336 16.176 25.6216 16.176C26.3096 16.176 26.8936 15.952 27.3736 15.504C27.6296 15.264 27.8376 14.968 27.9976 14.616C28.0616 14.488 28.1416 14.424 28.2376 14.424C28.3496 14.424 28.4376 14.512 28.5016 14.688C28.5656 14.864 28.5976 15 28.5976 15.096ZM34.6352 9.72L34.0832 9.864C33.7952 9.864 33.6512 9.6 33.6512 9.072C33.6512 8.528 33.8432 8.096 34.2272 7.776C34.6272 7.44 35.1312 7.272 35.7392 7.272C36.0752 7.272 36.4352 7.376 36.8192 7.584C37.2032 7.776 37.5232 8.024 37.7792 8.328C38.0352 8.616 38.2592 9.08 38.4512 9.72C38.6592 10.344 38.7632 11.08 38.7632 11.928C38.7632 13.88 38.2352 15.464 37.1792 16.68C36.1392 17.896 34.6272 18.504 32.6432 18.504C32.0672 18.504 31.4992 18.448 30.9392 18.336L30.6992 18.288C30.4912 18.224 30.3712 18.112 30.3392 17.952C30.2912 17.616 30.2672 16.824 30.2672 15.576L30.4112 7.8C30.4112 6.6 30.3792 5.68 30.3152 5.04L30.2672 4.704C30.2352 4.256 30.1392 3.872 29.9792 3.552C29.8352 3.232 29.6912 3.024 29.5472 2.928L29.3552 2.808C29.2432 2.744 29.1872 2.672 29.1872 2.592C29.1872 2.352 29.5872 2.072 30.3872 1.752C31.1872 1.416 31.7712 1.248 32.1392 1.248C32.5072 1.248 32.6992 1.344 32.7152 1.536C32.8272 2.512 32.8832 3.904 32.8832 5.712L32.7632 11.472C32.7632 13.984 32.8352 15.72 32.9792 16.68C32.9952 16.904 33.2432 17.016 33.7232 17.016C34.2192 17.016 34.6432 16.88 34.9952 16.608C35.3472 16.336 35.6112 15.976 35.7872 15.528C36.1072 14.712 36.2672 13.808 36.2672 12.816C36.2672 12.352 36.2032 11.848 36.0752 11.304C35.8512 10.248 35.3712 9.72 34.6352 9.72ZM47.9579 10.8L47.9099 13.872C47.9099 16 48.1419 17.28 48.6059 17.712C48.6699 17.776 48.7019 17.848 48.7019 17.928C48.7019 18.168 48.1819 18.288 47.1419 18.288C46.1179 18.288 45.5739 17.984 45.5099 17.376C45.4939 17.232 45.4859 16.936 45.4859 16.488L45.5819 12.648C45.5819 12.536 45.5179 12.48 45.3899 12.48C44.6219 12.48 43.9019 12.696 43.2299 13.128C42.5579 13.56 42.2219 14.112 42.2219 14.784C42.2219 15.136 42.3179 15.432 42.5099 15.672C42.7019 15.912 42.9339 16.032 43.2059 16.032C43.4939 16.032 43.7259 15.976 43.9019 15.864C44.0939 15.752 44.2059 15.688 44.2379 15.672C44.5099 15.704 44.6459 15.992 44.6459 16.536C44.6459 17.064 44.3979 17.496 43.9019 17.832C43.4059 18.152 42.8859 18.312 42.3419 18.312C41.7979 18.312 41.3259 18.216 40.9259 18.024C40.5419 17.832 40.2619 17.616 40.0859 17.376C39.9099 17.136 39.7659 16.864 39.6539 16.56C39.5419 16.192 39.4859 15.872 39.4859 15.6C39.4859 14.48 39.8379 13.584 40.5419 12.912C41.2459 12.24 42.1499 11.76 43.2539 11.472C44.7099 11.184 45.4699 10.92 45.5339 10.68C45.5819 10.504 45.6059 10.208 45.6059 9.792C45.6059 8.944 45.1739 8.52 44.3099 8.52C43.9419 8.52 43.6139 8.64 43.3259 8.88C43.0379 9.104 42.8939 9.392 42.8939 9.744L43.0379 10.32C43.0059 10.592 42.7179 10.752 42.1739 10.8L41.9099 10.824C41.4299 10.824 41.0459 10.704 40.7579 10.464C40.4859 10.224 40.3499 9.904 40.3499 9.504C40.3499 9.248 40.4299 8.968 40.5899 8.664C40.7659 8.344 40.9819 8.088 41.2379 7.896C41.4939 7.704 41.8859 7.536 42.4139 7.392C42.9579 7.232 43.4779 7.152 43.9739 7.152C44.4699 7.152 44.8539 7.168 45.1259 7.2C45.3979 7.232 45.7659 7.312 46.2299 7.44C46.7099 7.552 47.1019 7.776 47.4059 8.112C47.7259 8.448 47.8939 8.808 47.9099 9.192C47.9419 9.56 47.9579 10.096 47.9579 10.8ZM49.7506 14.328C49.7826 12.712 49.7986 11.384 49.7986 10.344C49.7986 9.304 49.7266 8.312 49.5826 7.368C49.5826 7.208 49.7426 7.128 50.0626 7.128C50.3826 7.128 50.6546 7.168 50.8786 7.248C51.1186 7.328 51.2866 7.416 51.3826 7.512C51.6386 7.768 51.7826 7.896 51.8146 7.896C51.8626 7.896 51.9906 7.824 52.1986 7.68C52.8226 7.28 53.5106 7.08 54.2626 7.08C55.0306 7.08 55.6946 7.272 56.2546 7.656C56.8306 8.04 57.2386 8.544 57.4786 9.168C57.9106 10.24 58.1266 11.376 58.1266 12.576C58.1266 13.76 57.9106 14.944 57.4786 16.128C57.2386 16.768 56.8866 17.296 56.4226 17.712C55.9586 18.112 55.4146 18.312 54.7906 18.312C53.5586 18.312 52.9426 17.6 52.9426 16.176C52.9426 15.792 53.0226 15.6 53.1826 15.6C53.2146 15.6 53.3026 15.64 53.4466 15.72C53.6066 15.784 53.7586 15.816 53.9026 15.816C55.0386 15.816 55.6066 14.616 55.6066 12.216C55.6066 9.8 54.9986 8.592 53.7826 8.592C53.4466 8.592 53.1586 8.672 52.9186 8.832C52.6946 8.976 52.5506 9.12 52.4866 9.264L52.3906 9.504C52.1666 10.944 52.0546 13.72 52.0546 17.832C52.0546 19.688 52.0866 21.016 52.1506 21.816C52.2306 22.632 52.2706 23.12 52.2706 23.28C52.2706 23.44 52.2226 23.584 52.1266 23.712C51.8066 24.128 51.3746 24.496 50.8306 24.816C50.2866 25.152 49.8066 25.32 49.3906 25.32C49.2306 25.32 49.1506 25.216 49.1506 25.008C49.4066 23.392 49.6066 19.832 49.7506 14.328ZM59.4131 14.328C59.4451 12.712 59.4611 11.384 59.4611 10.344C59.4611 9.304 59.3891 8.312 59.2451 7.368C59.2451 7.208 59.4051 7.128 59.7251 7.128C60.0451 7.128 60.3171 7.168 60.5411 7.248C60.7811 7.328 60.9491 7.416 61.0451 7.512C61.3011 7.768 61.4451 7.896 61.4771 7.896C61.5251 7.896 61.6531 7.824 61.8611 7.68C62.4851 7.28 63.1731 7.08 63.9251 7.08C64.6931 7.08 65.3571 7.272 65.9171 7.656C66.4931 8.04 66.9011 8.544 67.1411 9.168C67.5731 10.24 67.7891 11.376 67.7891 12.576C67.7891 13.76 67.5731 14.944 67.1411 16.128C66.9011 16.768 66.5491 17.296 66.0851 17.712C65.6211 18.112 65.0771 18.312 64.4531 18.312C63.2211 18.312 62.6051 17.6 62.6051 16.176C62.6051 15.792 62.6851 15.6 62.8451 15.6C62.8771 15.6 62.9651 15.64 63.1091 15.72C63.2691 15.784 63.4211 15.816 63.5651 15.816C64.7011 15.816 65.2691 14.616 65.2691 12.216C65.2691 9.8 64.6611 8.592 63.4451 8.592C63.1091 8.592 62.8211 8.672 62.5811 8.832C62.3571 8.976 62.2131 9.12 62.1491 9.264L62.0531 9.504C61.8291 10.944 61.7171 13.72 61.7171 17.832C61.7171 19.688 61.7491 21.016 61.8131 21.816C61.8931 22.632 61.9331 23.12 61.9331 23.28C61.9331 23.44 61.8851 23.584 61.7891 23.712C61.4691 24.128 61.0371 24.496 60.4931 24.816C59.9491 25.152 59.4691 25.32 59.0531 25.32C58.8931 25.32 58.8131 25.216 58.8131 25.008C59.0691 23.392 59.2691 19.832 59.4131 14.328Z" fill="#0075FF"/>
</svg>
